<svg width="85" height="108" viewBox="0 0 85 108" fill="none" xmlns="http://www.w3.org/2000/svg">
<path id="Intersect" fill-rule="evenodd" clip-rule="evenodd" d="M35.1391 0C35.7471 0.329526 36.3329 0.574658 36.9471 0.749933C39.0844 1.35599 41.324 1.04235 45.8031 0.41508L45.8031 0.415075L48.7764 0H76.0357C76.5347 0.376739 76.9852 0.812582 77.3918 1.31304C81.2671 6.08297 78.5789 13.5611 73.2027 28.5172L73.1942 28.5409L71.8017 32.4162L71.8017 32.4162C70.2704 36.6719 69.5048 38.7998 69.6603 41.0159C69.8158 43.232 70.8813 45.2944 73.0123 49.4192L74.9464 53.1686L74.9534 53.1821C82.4294 67.6755 86.1647 74.9168 82.9878 79.9483C79.8104 84.9725 71.8158 84.457 55.8271 83.4171L51.6916 83.1461L51.6503 83.1435C47.1377 82.8515 44.869 82.7048 42.8368 83.4634C40.7938 84.228 39.2106 85.8154 36.049 88.9864L33.1698 91.8776L33.1475 91.9C22.0239 103.051 16.4625 108.626 10.6274 106.962C5.69302 105.56 3.32353 99.7716 0 88.6076V16C0 7.16345 7.16344 0 16 0H35.1391Z" fill="#5C93C9"/>
</svg>
