<svg width="31" height="31" viewBox="0 0 31 31" fill="none" xmlns="http://www.w3.org/2000/svg">
<g id="material-symbols:quiz">
<path id="Vector" d="M18.25 19.3499C18.6042 19.3499 18.9117 19.2199 19.1725 18.9599C19.4333 18.6999 19.5633 18.3924 19.5625 18.0374C19.5617 17.6824 19.4317 17.3753 19.1725 17.1161C18.9133 16.8569 18.6058 16.7265 18.25 16.7249C17.8942 16.7232 17.5871 16.8536 17.3288 17.1161C17.0704 17.3786 16.94 17.6857 16.9375 18.0374C16.935 18.389 17.0654 18.6965 17.3288 18.9599C17.5921 19.2232 17.8992 19.3532 18.25 19.3499ZM17.3125 15.3499H19.1875C19.1875 14.7457 19.25 14.3032 19.375 14.0224C19.5 13.7415 19.7917 13.3715 20.25 12.9124C20.875 12.2874 21.2917 11.7824 21.5 11.3974C21.7083 11.0124 21.8125 10.559 21.8125 10.0374C21.8125 9.09985 21.4842 8.33444 20.8275 7.7411C20.1708 7.14777 19.3117 6.85069 18.25 6.84985C17.3958 6.84985 16.6513 7.08944 16.0163 7.5686C15.3813 8.04777 14.9383 8.68319 14.6875 9.47485L16.375 10.1624C16.5625 9.64152 16.8179 9.2511 17.1413 8.9911C17.4646 8.7311 17.8342 8.60069 18.25 8.59985C18.75 8.59985 19.1563 8.74069 19.4688 9.02235C19.7813 9.30402 19.9375 9.68402 19.9375 10.1624C19.9375 10.454 19.8542 10.7303 19.6875 10.9911C19.5208 11.2519 19.2292 11.5799 18.8125 11.9749C18.125 12.579 17.7033 13.0532 17.5475 13.3974C17.3917 13.7415 17.3133 14.3924 17.3125 15.3499ZM10.75 23.0999C10.0625 23.0999 9.47417 22.8553 8.985 22.3661C8.49583 21.8769 8.25083 21.2882 8.25 20.5999V5.59985C8.25 4.91235 8.495 4.32402 8.985 3.83485C9.475 3.34569 10.0633 3.10069 10.75 3.09985H25.75C26.4375 3.09985 27.0263 3.34485 27.5163 3.83485C28.0063 4.32485 28.2508 4.91319 28.25 5.59985V20.5999C28.25 21.2874 28.0054 21.8761 27.5163 22.3661C27.0271 22.8561 26.4383 23.1007 25.75 23.0999H10.75ZM5.75 28.0999C5.0625 28.0999 4.47417 27.8553 3.985 27.3661C3.49583 26.8769 3.25083 26.2882 3.25 25.5999V8.09985H5.75V25.5999H23.25V28.0999H5.75Z" fill="#083968"/>
</g>
</svg>
