<svg width="31" height="31" viewBox="0 0 31 31" fill="none" xmlns="http://www.w3.org/2000/svg">
<g id="solar:star-linear">
<path id="Vector" d="M11.6913 7.35985C13.275 4.51985 14.0663 3.09985 15.25 3.09985C16.4338 3.09985 17.225 4.51985 18.8088 7.35985L19.2188 8.09485C19.6688 8.90235 19.8938 9.3061 20.2438 9.57235C20.5938 9.8386 21.0313 9.93735 21.9063 10.1349L22.7013 10.3149C25.7763 11.0111 27.3125 11.3586 27.6788 12.5349C28.0438 13.7099 26.9963 14.9361 24.9 17.3874L24.3575 18.0211C23.7625 18.7174 23.4638 19.0661 23.33 19.4961C23.1963 19.9274 23.2413 20.3924 23.3313 21.3211L23.4138 22.1674C23.73 25.4386 23.8888 27.0736 22.9313 27.7999C21.9738 28.5274 20.5338 27.8636 17.6563 26.5386L16.91 26.1961C16.0925 25.8186 15.6838 25.6311 15.25 25.6311C14.8163 25.6311 14.4075 25.8186 13.59 26.1961L12.845 26.5386C9.9663 27.8636 8.5263 28.5261 7.57005 27.8011C6.6113 27.0736 6.77005 25.4386 7.0863 22.1674L7.1688 21.3224C7.2588 20.3924 7.3038 19.9274 7.1688 19.4974C7.0363 19.0661 6.73755 18.7174 6.14255 18.0224L5.60005 17.3874C3.5038 14.9374 2.4563 13.7111 2.8213 12.5349C3.18755 11.3586 4.72505 11.0099 7.80005 10.3149L8.59505 10.1349C9.4688 9.93735 9.90505 9.8386 10.2563 9.57235C10.6063 9.3061 10.8313 8.90235 11.2813 8.09485L11.6913 7.35985Z" fill="#083968" stroke="#083968" stroke-width="1.5"/>
</g>
</svg>
