<svg width="31" height="31" viewBox="0 0 31 31" fill="none" xmlns="http://www.w3.org/2000/svg">
<g id="uis:hospital">
<path id="Vector" d="M27.375 8.72485H23.625V3.72485C23.625 2.97485 23.125 2.47485 22.375 2.47485H8.625C7.875 2.47485 7.375 2.97485 7.375 3.72485V8.72485H3.625C2.875 8.72485 2.375 9.22485 2.375 9.97485V27.4749C2.375 28.2249 2.875 28.7249 3.625 28.7249H27.375C28.125 28.7249 28.625 28.2249 28.625 27.4749V9.97485C28.625 9.22485 28.125 8.72485 27.375 8.72485ZM9.875 23.7249H8.625C7.875 23.7249 7.375 23.2249 7.375 22.4749C7.375 21.7249 7.875 21.2249 8.625 21.2249H9.875C10.625 21.2249 11.125 21.7249 11.125 22.4749C11.125 23.2249 10.625 23.7249 9.875 23.7249ZM9.875 18.7249H8.625C7.875 18.7249 7.375 18.2249 7.375 17.4749C7.375 16.7249 7.875 16.2249 8.625 16.2249H9.875C10.625 16.2249 11.125 16.7249 11.125 17.4749C11.125 18.2249 10.625 18.7249 9.875 18.7249ZM16.125 23.7249H14.875C14.125 23.7249 13.625 23.2249 13.625 22.4749C13.625 21.7249 14.125 21.2249 14.875 21.2249H16.125C16.875 21.2249 17.375 21.7249 17.375 22.4749C17.375 23.2249 16.875 23.7249 16.125 23.7249ZM16.125 18.7249H14.875C14.125 18.7249 13.625 18.2249 13.625 17.4749C13.625 16.7249 14.125 16.2249 14.875 16.2249H16.125C16.875 16.2249 17.375 16.7249 17.375 17.4749C17.375 18.2249 16.875 18.7249 16.125 18.7249ZM17.375 11.8499H16.75V12.4749C16.75 13.2249 16.25 13.7249 15.5 13.7249C14.75 13.7249 14.25 13.2249 14.25 12.4749V11.8499H13.625C12.875 11.8499 12.375 11.3499 12.375 10.5999C12.375 9.84985 12.875 9.34985 13.625 9.34985H14.25V8.72485C14.25 7.97485 14.75 7.47485 15.5 7.47485C16.25 7.47485 16.75 7.97485 16.75 8.72485V9.34985H17.375C18.125 9.34985 18.625 9.84985 18.625 10.5999C18.625 11.3499 18.125 11.8499 17.375 11.8499ZM22.375 23.7249H21.125C20.375 23.7249 19.875 23.2249 19.875 22.4749C19.875 21.7249 20.375 21.2249 21.125 21.2249H22.375C23.125 21.2249 23.625 21.7249 23.625 22.4749C23.625 23.2249 23.125 23.7249 22.375 23.7249ZM22.375 18.7249H21.125C20.375 18.7249 19.875 18.2249 19.875 17.4749C19.875 16.7249 20.375 16.2249 21.125 16.2249H22.375C23.125 16.2249 23.625 16.7249 23.625 17.4749C23.625 18.2249 23.125 18.7249 22.375 18.7249Z" fill="#083968"/>
</g>
</svg>
