<svg width="51" height="52" viewBox="0 0 51 52" fill="none" xmlns="http://www.w3.org/2000/svg">
<g id="&#240;&#159;&#166;&#134; icon &#34;Cognitive&#34;">
<path id="Vector" d="M47.8124 21.2535C47.8124 18.9513 47.3589 16.6716 46.4779 14.5446C45.5969 12.4176 44.3055 10.485 42.6776 8.85707C41.0497 7.22915 39.117 5.9378 36.99 5.05678C34.8631 4.17575 32.5834 3.72229 30.2811 3.72229H17.5311C13.7269 3.72229 10.0785 5.2335 7.38856 7.92348C4.69859 10.6135 3.18738 14.2618 3.18738 18.066V22.8473C3.18738 24.9607 4.02694 26.9876 5.52137 28.482C7.0158 29.9765 9.04268 30.816 11.1561 30.816H12.0928C12.5679 30.816 12.9711 31.1529 13.1132 31.6063C13.5775 33.0872 14.4664 34.4065 15.6778 35.3954C17.1008 36.5571 18.8816 37.1914 20.7186 37.191H22.3377C22.6965 37.191 23.0279 37.3833 23.2059 37.6949L28.7944 47.4747C29.0694 47.9559 29.6833 48.1217 30.1631 47.8444L31.1828 47.2549C31.6616 46.9782 31.8248 46.3653 31.5472 45.8871L25.6752 35.7726C25.4187 35.2558 25.0268 34.8183 24.5413 34.5068C24.0557 34.1952 23.4947 34.0213 22.918 34.0035H20.7186C19.4506 34.0035 18.2344 33.4998 17.3378 32.6031C16.4411 31.7065 15.9374 30.4904 15.9374 29.2223C15.9374 27.9542 16.4411 26.7381 17.3378 25.8414C18.2344 24.9448 19.4506 24.441 20.7186 24.441H21.3124C21.8647 24.441 22.3124 23.9933 22.3124 23.441V22.2535C22.3124 21.7013 21.8647 21.2535 21.3124 21.2535H20.7186C18.8816 21.2532 17.1008 21.8875 15.6778 23.0492C14.4664 24.0381 13.5775 25.3574 13.1132 26.8383C12.9711 27.2917 12.5679 27.6285 12.0928 27.6285H11.1561C9.88806 27.6285 8.67193 27.1248 7.77527 26.2281C6.87862 25.3315 6.37488 24.1154 6.37488 22.8473V20.6598C6.37488 20.1075 6.82259 19.6598 7.37488 19.6598H9.56238C10.8304 19.6598 12.0466 19.1561 12.9432 18.2594C13.8399 17.3627 14.3436 16.1466 14.3436 14.8785V14.2848C14.3436 13.7325 13.8959 13.2848 13.3436 13.2848H12.1561C11.6038 13.2848 11.1561 13.7325 11.1561 14.2848V14.8785C11.1561 15.3012 10.9882 15.7066 10.6893 16.0055C10.3904 16.3044 9.98507 16.4723 9.56238 16.4723H7.65708C7.04795 16.4723 6.57729 15.9306 6.72613 15.3399C7.28212 13.1334 8.50266 11.1397 10.2358 9.63698C12.261 7.88103 14.8507 6.91293 17.5311 6.90979H26.0936C26.6459 6.90979 27.0936 7.35751 27.0936 7.90979V10.0973C27.0936 10.52 26.9257 10.9254 26.6268 11.2242C26.3279 11.5231 25.9226 11.691 25.4999 11.691H23.3124C22.7601 11.691 22.3124 12.1388 22.3124 12.691V13.8785C22.3124 14.4308 22.7601 14.8785 23.3124 14.8785H25.4999C26.7679 14.8785 27.9841 14.3748 28.8807 13.4781C29.7774 12.5815 30.2811 11.3654 30.2811 10.0973V7.91115C30.2811 7.35834 30.7302 6.90678 31.2816 6.94609C33.5993 7.11131 35.8475 7.83764 37.8297 9.06884C39.638 10.192 41.1677 11.6998 42.3146 13.4773C42.7168 14.1009 42.2404 14.8785 41.4984 14.8785H41.4374C40.1693 14.8785 38.9532 15.3823 38.0565 16.2789C37.1599 17.1756 36.6561 18.3917 36.6561 19.6598V20.2535C36.6561 20.8058 37.1038 21.2535 37.6561 21.2535H38.8436C39.3959 21.2535 39.8436 20.8058 39.8436 20.2535V19.6598C39.8436 19.2371 40.0115 18.8317 40.3104 18.5328C40.6093 18.234 41.0147 18.066 41.4374 18.066H43.4651C43.9297 18.066 44.3369 18.3854 44.4169 18.8431C44.5557 19.6386 44.6254 20.4451 44.6249 21.2535V22.8473C44.6249 24.9607 43.7853 26.9876 42.2909 28.482C40.7965 29.9765 38.7696 30.816 36.6561 30.816H32.8749C32.3226 30.816 31.8749 31.2638 31.8749 31.816V33.0035C31.8749 33.5558 32.3226 34.0035 32.8749 34.0035H36.6561C37.9484 34.0018 39.2278 33.7755 40.4378 33.3375C40.9107 33.1663 41.4374 33.5006 41.4374 34.0035C41.4374 35.2716 40.9336 36.4877 40.037 37.3844C39.1403 38.2811 37.9242 38.7848 36.6561 38.7848H36.0624C35.5101 38.7848 35.0624 39.2325 35.0624 39.7848V40.9723C35.0624 41.5246 35.5101 41.9723 36.0624 41.9723H36.6561C38.7696 41.9723 40.7965 41.1327 42.2909 39.6383C43.7853 38.1439 44.6249 36.117 44.6249 34.0035V31.049C44.6249 30.7873 44.7291 30.5374 44.9053 30.3439C46.7691 28.297 47.8088 25.6254 47.8124 22.8473V21.2535Z" fill="white" stroke="white"/>
</g>
</svg>
